<?xml version="1.0" standalone="no"?>
<!DOCTYPE svg PUBLIC "-//W3C//DTD SVG 20010904//EN"
 "http://www.w3.org/TR/2001/REC-SVG-20010904/DTD/svg10.dtd">
<svg version="1.0" xmlns="http://www.w3.org/2000/svg"
 width="500.000000pt" height="500.000000pt" viewBox="0 0 500.000000 500.000000"
 preserveAspectRatio="xMidYMid meet">

<g transform="translate(0.000000,500.000000) scale(0.100000,-0.100000)"
fill="#000000" stroke="none">
<path d="M2220 4829 c-36 -4 -93 -13 -126 -19 l-61 -12 9 -41 c10 -46 4 -99
-16 -136 -13 -23 -14 -22 -20 25 -8 51 -40 134 -52 134 -4 0 -42 -10 -86 -22
-85 -23 -83 -20 -62 -85 3 -11 -6 -5 -24 15 -18 21 -32 29 -36 23 -4 -6 -4
-15 -1 -21 3 -5 2 -10 -3 -10 -6 0 -12 7 -16 15 -4 13 -16 11 -78 -11 -58 -21
-222 -97 -236 -109 -2 -1 9 -20 23 -41 26 -38 30 -74 8 -81 -6 -2 -18 18 -28
46 -9 28 -21 53 -26 57 -5 3 -34 -9 -65 -27 l-56 -31 36 -37 c48 -49 33 -62
-16 -14 l-37 36 -33 -17 c-60 -32 -223 -162 -220 -175 1 -7 -2 -10 -8 -6 -10
6 -120 -81 -120 -95 0 -10 193 -120 210 -120 6 0 9 8 7 18 -15 56 -29 143 -24
149 4 3 28 -3 54 -14 37 -15 49 -25 51 -44 6 -56 14 -69 50 -88 20 -11 52 -35
70 -53 27 -29 30 -37 19 -51 -11 -16 -19 -9 -77 61 l-65 79 -12 -28 c-11 -26
-51 -52 -71 -47 -14 5 -110 -57 -105 -67 8 -14 -70 70 -114 123 -29 34 -38 40
-50 31 -12 -10 -9 -17 15 -43 17 -17 39 -51 51 -76 l22 -45 -61 65 -60 65 -40
-45 -39 -45 37 -32 c42 -37 41 -39 -18 -18 -23 8 -44 15 -45 15 -1 0 -19 -20
-39 -45 l-37 -44 67 -31 c37 -16 78 -30 91 -30 13 0 34 -6 46 -14 12 -7 44
-25 70 -40 47 -27 47 -27 27 -44 -19 -15 -20 -21 -9 -52 18 -50 65 -122 149
-224 l73 -88 -12 -107 c-6 -58 -11 -121 -11 -138 0 -21 -15 -54 -42 -97 -24
-35 -48 -72 -54 -82 -11 -18 -13 -18 -39 6 -37 34 -75 112 -68 139 4 15 1 21
-10 21 -9 0 -29 19 -46 43 -16 23 -41 55 -56 70 l-27 28 29 -7 c15 -4 37 -10
49 -15 25 -9 68 10 72 33 3 17 13 14 -300 113 -135 42 -182 53 -197 46 -13 -7
-23 -6 -37 4 -18 14 -18 16 -1 29 9 7 17 24 17 37 0 33 -13 15 -50 -70 -26
-59 -29 -75 -18 -82 9 -6 10 -9 1 -9 -14 0 -41 -47 -54 -92 -9 -32 2 -40 105
-78 63 -24 62 -23 71 -71 5 -29 3 -38 -10 -43 -20 -7 -113 33 -161 69 l-32 25
-16 -48 c-20 -65 -46 -185 -46 -217 0 -22 3 -24 18 -16 11 6 28 41 42 85 13
42 25 76 27 76 2 0 19 -18 38 -39 60 -66 86 -74 300 -82 105 -4 212 -12 240
-18 27 -5 51 -8 52 -7 1 1 -36 29 -82 61 -47 33 -85 63 -85 67 0 11 67 -11
143 -48 39 -19 81 -34 93 -34 21 0 21 -2 -13 -72 -19 -39 -45 -101 -58 -137
-21 -64 -23 -66 -61 -72 -82 -11 -142 -64 -130 -114 7 -28 87 -85 118 -85 16
0 18 -10 18 -79 0 -142 62 -327 153 -460 16 -24 56 -75 88 -112 l59 -68 -61
-153 c-62 -154 -91 -239 -85 -245 6 -6 88 15 96 24 4 4 24 60 45 123 102 313
246 645 322 744 86 112 169 113 225 2 l15 -28 22 30 c24 34 79 72 105 72 31 0
66 -46 66 -87 l1 -38 22 27 c34 41 85 59 123 43 69 -29 69 -115 4 -493 -22
-128 -40 -239 -40 -248 0 -11 10 -14 40 -12 32 1 41 6 44 22 3 12 9 46 15 76
24 127 63 441 63 515 0 93 -24 158 -74 200 -34 29 -54 32 -119 20 -31 -6 -36
-4 -47 19 -7 16 -25 29 -51 37 -36 11 -45 9 -94 -15 -30 -14 -58 -26 -64 -26
-5 0 -22 13 -38 30 -38 40 -81 47 -136 22 -92 -41 -170 -148 -269 -371 -60
-134 -79 -161 -115 -161 -46 0 -161 176 -210 324 -31 94 -47 258 -34 352 19
132 106 329 208 470 55 77 59 86 65 155 27 288 104 548 240 814 103 201 125
235 152 235 33 0 192 -83 282 -147 44 -32 124 -94 177 -138 l96 -80 -43 -17
c-24 -10 -56 -25 -73 -33 -29 -15 -29 -15 30 -11 33 3 103 12 155 20 269 43
578 41 893 -5 178 -26 204 -22 109 15 l-73 30 28 23 c194 165 318 253 438 310
63 30 74 32 98 21 16 -7 48 -44 74 -83 145 -218 274 -603 305 -908 l12 -112
61 -86 c81 -113 148 -244 181 -355 23 -76 27 -107 27 -214 0 -149 -16 -226
-73 -348 -44 -94 -142 -232 -165 -232 -43 0 -61 24 -128 173 -78 176 -143 277
-212 329 -77 58 -137 59 -197 1 l-28 -26 -55 27 c-68 35 -111 30 -150 -15 -24
-29 -28 -31 -63 -22 -102 26 -172 -52 -180 -202 -3 -57 5 -142 28 -295 17
-118 34 -234 37 -258 l6 -42 44 0 c38 0 44 3 39 18 -13 42 -78 462 -83 536 -7
97 10 150 53 166 38 15 88 -4 119 -43 l25 -32 0 33 c0 35 15 72 34 84 31 21
70 7 117 -42 l48 -49 27 48 c14 27 36 53 49 59 70 32 158 -54 258 -253 53
-107 195 -469 202 -518 10 -62 17 -70 75 -77 46 -6 51 -5 47 11 -5 20 18 15
26 -6 6 -13 172 -43 183 -32 3 3 -9 22 -28 42 -26 28 -55 44 -128 69 l-94 33
-33 77 -33 77 80 96 c147 177 220 366 220 571 0 209 -69 420 -205 623 l-55 82
-11 121 c-5 66 -17 156 -24 201 -8 44 -15 83 -15 86 0 16 124 20 252 8 l139
-13 -38 -34 c-21 -18 -31 -32 -23 -29 58 18 132 29 154 23 20 -5 26 -12 26
-35 0 -33 -34 -84 -132 -197 -38 -42 -68 -85 -68 -94 0 -16 5 -17 68 -5 37 8
85 20 107 28 43 16 157 65 162 71 5 4 -49 147 -86 230 -25 55 -34 67 -49 61
-9 -4 -35 -9 -57 -11 l-40 -4 40 20 c22 11 46 20 53 20 18 0 -47 120 -139 256
-377 564 -986 940 -1663 1029 -126 16 -470 19 -586 4z m695 -291 c-7 -51 -16
-124 -19 -163 l-6 -70 57 -32 c98 -55 96 -51 82 -125 -11 -61 -5 -148 9 -133
14 13 47 121 44 143 -2 12 -10 22 -19 22 -8 0 -13 4 -11 9 6 18 182 280 186
277 1 -2 -20 -50 -48 -106 -27 -57 -50 -104 -50 -106 0 -2 19 17 42 42 54 59
104 84 167 84 49 0 121 -25 121 -42 0 -5 -7 -23 -16 -39 -20 -40 -12 -59 25
-59 48 0 44 -15 -12 -45 -101 -54 -240 -159 -360 -271 l-67 -63 -68 14 c-82
17 -230 35 -294 35 -47 0 -48 0 -48 33 0 113 47 278 94 332 32 38 37 40 90 39
65 0 73 15 33 62 -22 25 -25 26 -52 12 -15 -9 -47 -41 -69 -73 -23 -32 -51
-64 -63 -72 -19 -13 -23 -12 -43 9 -22 23 -53 77 -70 122 -8 23 -7 23 36 18
l44 -5 98 96 c96 94 163 147 187 147 9 0 9 -20 0 -92z m525 22 c0 -65 -2 -72
-32 -100 -17 -17 -33 -29 -34 -27 -4 3 59 197 63 197 2 0 3 -31 3 -70z m-271
-75 c-11 -38 -89 -159 -97 -150 -3 2 19 47 48 100 29 52 55 94 56 92 2 -2 -1
-21 -7 -42z m-1212 -17 c-3 -8 -6 -5 -6 6 -1 11 2 17 5 13 3 -3 4 -12 1 -19z
m62 -253 c0 -16 -1 -17 -8 -5 -10 16 -51 202 -50 222 1 19 58 -193 58 -217z
m-758 114 c28 -55 19 -58 -18 -6 -47 67 -49 71 -24 58 11 -7 30 -30 42 -52z
m-52 -44 c39 -41 71 -79 71 -84 0 -11 -26 -22 -42 -17 -7 3 -25 7 -40 10 -23
5 -28 12 -28 34 0 16 -11 51 -25 78 -28 56 -28 54 -16 54 5 0 41 -34 80 -75z
m346 -3 c-8 -8 -25 17 -25 38 0 9 6 6 16 -8 9 -13 13 -26 9 -30z m-230 -69
c30 -45 31 -53 5 -53 -23 0 -40 28 -40 64 0 34 5 33 35 -11z m491 -40 c-5 -5
-36 50 -36 64 0 4 9 -7 21 -26 11 -18 18 -35 15 -38z m520 -26 c121 -58 151
-66 170 -47 8 8 22 -18 48 -86 20 -53 35 -98 34 -99 -2 -1 -61 -7 -132 -14
-71 -6 -156 -18 -188 -27 l-60 -15 -65 58 c-35 32 -85 76 -110 98 -45 40 -45
42 -38 85 5 31 18 55 42 79 33 33 34 34 106 29 61 -4 90 -13 193 -61z m-382
-45 c17 -33 17 -33 -3 -22 -13 7 -21 21 -21 37 0 30 2 29 24 -15z m-801 -250
c66 -50 71 -59 59 -91 -8 -24 -8 -23 -28 8 -11 17 -49 62 -85 98 -68 71 -52
67 54 -15z m2959 -58 c50 -25 48 -83 -4 -155 l-31 -43 -29 95 c-16 52 -32 102
-35 112 -5 16 -1 18 33 11 22 -4 51 -13 66 -20z m-3703 -438 c-2 -2 -17 -6
-34 -10 -22 -5 -26 -4 -15 4 14 9 59 15 49 6z"/>
<path d="M1102 4178 c2 -6 15 -18 29 -27 l24 -15 -24 27 c-26 29 -35 34 -29
15z"/>
<path d="M1556 3963 c-53 -82 -89 -238 -85 -380 2 -82 1 -83 -35 -130 -38 -49
-109 -187 -119 -233 -6 -24 -5 -24 21 6 15 17 53 63 86 102 32 40 75 87 95
105 l36 32 1 175 c0 119 6 204 17 264 9 49 15 92 13 94 -3 2 -16 -13 -30 -35z"/>
<path d="M3643 3979 c19 -77 31 -213 31 -352 l1 -157 58 -62 c32 -34 84 -93
115 -131 31 -38 58 -65 60 -59 5 17 -73 178 -114 234 l-37 50 -2 116 c-3 129
-26 234 -69 320 -29 57 -52 79 -43 41z"/>
<path d="M554 3822 c-43 -64 -47 -69 -104 -164 -22 -37 -43 -73 -46 -81 -7
-20 30 -26 97 -16 163 23 203 11 331 -101 99 -87 118 -97 152 -84 35 13 11 45
-118 157 -168 147 -160 138 -140 174 15 25 15 32 3 58 -13 28 -111 115 -128
115 -4 0 -26 -26 -47 -58z"/>
<path d="M1725 3270 c-4 -6 1 -22 9 -35 14 -21 14 -25 2 -25 -7 0 -19 -6 -25
-14 -18 -21 4 -33 115 -61 135 -35 134 -35 104 -48 -133 -57 -230 -108 -239
-126 -14 -26 -7 -41 21 -41 18 0 17 -3 -11 -32 -36 -37 -40 -63 -11 -71 29 -7
73 6 224 70 239 100 352 169 344 210 -5 26 -58 58 -161 97 -190 73 -353 106
-372 76z"/>
<path d="M3314 3255 c-156 -46 -296 -107 -324 -140 -35 -43 36 -97 255 -194
171 -76 280 -114 306 -106 23 8 24 33 3 64 -14 19 -14 27 -3 47 17 32 3 46
-99 99 -64 34 -77 45 -77 65 0 22 8 28 69 47 93 31 120 54 76 68 -17 5 -18 10
-9 26 6 12 8 27 5 35 -8 22 -109 17 -202 -11z"/>
<path d="M2538 2915 c-78 -68 -120 -71 -177 -16 l-30 29 -41 -29 c-85 -61
-140 -165 -147 -279 -9 -129 29 -242 108 -321 92 -92 277 -142 446 -121 270
34 413 185 400 422 -5 111 -34 184 -98 254 -65 71 -80 76 -125 37 -50 -45 -92
-42 -147 8 -84 76 -114 79 -189 16z"/>
<path d="M4743 2916 c-84 -29 -90 -40 -18 -32 91 11 105 16 105 37 0 23 -8 23
-87 -5z"/>
<path d="M4716 2785 c-66 -25 -149 -54 -185 -66 l-66 -21 -1 -157 c0 -123 -5
-176 -22 -249 -21 -92 -21 -93 -2 -112 26 -26 25 -70 -1 -148 l-21 -62 31 -26
c36 -30 40 -61 10 -72 -17 -7 -10 -11 36 -26 176 -55 189 -219 29 -386 l-54
-56 36 -18 c20 -9 34 -19 31 -22 -3 -4 -2 -16 3 -28 11 -30 -6 -56 -36 -56
-14 0 -23 -4 -19 -9 6 -10 -47 -20 -133 -24 l-53 -2 71 -55 c39 -30 74 -56 78
-57 9 -4 97 136 156 247 127 241 224 559 255 840 16 146 3 611 -18 609 -3 0
-60 -20 -125 -44z"/>
<path d="M355 2690 c-3 -6 1 -7 9 -4 18 7 21 14 7 14 -6 0 -13 -4 -16 -10z"/>
<path d="M143 2288 c6 -112 33 -279 62 -393 44 -171 141 -424 155 -408 4 4 13
24 19 43 6 19 26 58 43 87 27 44 38 53 76 63 91 23 80 -11 -50 -146 l-79 -82
20 -40 c15 -29 31 -44 61 -56 43 -17 48 -27 25 -46 -24 -20 -19 -36 41 -126
38 -58 60 -82 67 -76 90 66 97 74 97 106 0 53 -30 81 -107 102 -38 9 -70 19
-72 20 -2 2 18 37 44 79 78 125 91 184 55 254 -20 41 -34 56 -174 190 -86 83
-131 149 -137 205 -4 25 0 31 29 40 l33 11 -34 40 c-51 61 -157 206 -157 216
0 4 8 6 18 2 14 -5 13 -3 -3 10 -11 9 -24 17 -29 17 -5 0 -6 -48 -3 -112z"/>
<path d="M1270 1142 c0 -94 4 -142 12 -150 15 -15 120 -16 135 -1 8 8 13 8 17
0 4 -6 34 -11 66 -11 48 0 61 4 70 19 5 11 10 78 10 150 l0 131 -45 0 -45 0 0
-110 c0 -61 -4 -110 -9 -110 -17 0 -23 39 -19 128 l3 87 -43 3 -42 3 0 -110
c0 -92 -3 -111 -15 -111 -12 0 -15 19 -15 110 l0 110 -40 0 -40 0 0 -138z"/>
<path d="M1600 1130 l0 -150 35 0 c34 0 35 1 35 40 0 29 4 40 15 40 11 0 15
-11 15 -40 l0 -40 40 0 40 0 0 40 c0 26 -7 47 -18 58 -18 18 -18 19 0 42 10
12 18 37 18 56 0 33 -1 34 -39 34 -40 0 -40 0 -43 -42 -5 -70 -23 -44 -26 37
l-3 75 -34 0 -35 0 0 -150z"/>
<path d="M2100 1130 l0 -150 40 0 40 0 0 40 c0 22 5 40 10 40 6 0 10 -11 10
-24 0 -44 10 -56 46 -56 33 0 34 1 34 42 0 24 -7 49 -17 60 -15 17 -15 19 0
36 10 10 17 35 17 55 0 36 -1 37 -40 37 -40 0 -40 0 -40 -39 0 -22 -4 -43 -10
-46 -6 -4 -10 23 -10 74 l0 81 -40 0 -40 0 0 -150z"/>
<path d="M2300 1142 c0 -94 4 -142 12 -150 15 -15 120 -16 135 -1 8 8 13 8 17
0 10 -15 119 -14 134 1 8 8 12 56 12 150 l0 138 -39 0 c-47 0 -51 -9 -51 -132
0 -52 -4 -88 -10 -88 -6 0 -10 43 -10 110 l0 110 -45 0 -45 0 0 -110 c0 -60
-4 -110 -9 -110 -16 0 -21 30 -21 126 l0 94 -40 0 -40 0 0 -138z"/>
<path d="M2830 1131 l0 -150 80 0 c77 0 81 1 90 25 13 34 13 160 0 185 -12 22
-68 27 -88 7 -9 -9 -12 -2 -12 35 l0 47 -35 0 -35 0 0 -149z m100 -37 c0 -40
-4 -55 -12 -52 -14 5 -23 70 -14 94 12 32 26 11 26 -42z"/>
<path d="M3200 1265 c0 -11 12 -15 45 -15 45 0 60 12 29 24 -31 12 -74 7 -74
-9z"/>
<path d="M4180 1211 c0 -36 2 -40 33 -46 17 -4 40 -9 50 -11 15 -5 17 2 17 45
l0 51 -50 0 -50 0 0 -39z"/>
<path d="M1800 1107 c0 -67 4 -107 12 -115 15 -15 100 -16 115 -1 8 8 13 8 17
0 4 -6 29 -11 55 -11 72 0 81 15 81 133 l0 97 -40 0 -40 0 0 -81 c0 -60 -3
-80 -12 -76 -9 2 -13 28 -13 80 l0 77 -37 0 -38 0 0 -80 c0 -64 -3 -80 -15
-80 -12 0 -15 16 -15 80 l0 80 -35 0 -35 0 0 -103z"/>
<path d="M2642 1198 c-16 -16 -16 -190 0 -206 7 -7 43 -12 90 -12 l78 0 0 30
c0 29 -1 30 -50 30 -27 0 -50 5 -50 10 0 6 23 10 50 10 l50 0 0 63 c0 36 -5
68 -12 75 -7 7 -40 12 -78 12 -38 0 -71 -5 -78 -12z m88 -68 c0 -11 -4 -20
-10 -20 -5 0 -10 9 -10 20 0 11 5 20 10 20 6 0 10 -9 10 -20z"/>
<path d="M3134 1197 c-2 -7 -3 -58 -2 -113 l3 -99 58 -3 58 -3 -3 28 c-2 20
-9 29 -25 31 -21 3 -23 9 -23 57 0 48 2 54 23 57 16 2 23 11 25 31 3 27 3 27
-53 27 -37 0 -57 -4 -61 -13z"/>
<path d="M3273 1203 c-9 -3 -13 -35 -13 -108 0 -85 3 -104 16 -109 28 -11 140
-6 152 6 16 16 16 190 0 206 -12 12 -130 16 -155 5z m87 -108 c0 -42 -3 -55
-15 -55 -11 0 -15 12 -15 48 0 27 3 52 7 55 16 17 23 3 23 -48z"/>
<path d="M3460 1095 l0 -115 35 0 34 0 3 82 c2 54 7 83 16 86 9 3 12 -18 12
-82 l0 -86 40 0 40 0 0 86 c0 64 3 85 13 82 8 -3 13 -32 15 -86 l3 -82 34 0
35 0 0 99 c0 55 -3 106 -6 115 -7 19 -74 22 -91 5 -8 -8 -13 -8 -17 0 -10 15
-69 14 -84 -1 -9 -9 -12 -9 -12 0 0 7 -14 12 -35 12 l-35 0 0 -115z"/>
<path d="M3034 1025 c-10 -25 4 -45 29 -45 34 0 54 25 37 45 -7 8 -23 15 -37
15 -13 0 -26 -7 -29 -15z"/>
<path d="M3580 678 c10 -29 16 -56 13 -61 -3 -5 -23 17 -46 47 -42 58 -75 75
-63 34 35 -121 32 -186 -14 -306 -18 -46 -30 -85 -27 -88 9 -9 263 126 367
195 116 77 271 199 278 219 2 8 -12 12 -52 12 -45 0 -69 -7 -131 -40 -105 -55
-164 -52 -241 13 -21 18 -44 27 -67 27 l-36 0 19 -52z"/>
<path d="M3018 593 c-28 -117 -77 -237 -143 -352 -52 -91 -60 -111 -44 -111
77 0 489 107 489 127 0 25 -50 140 -79 181 -30 41 -197 222 -205 222 -1 0 -9
-30 -18 -67z"/>
<path d="M2512 575 c-6 -14 -7 -25 -2 -25 9 0 25 39 18 46 -3 2 -10 -7 -16
-21z"/>
<path d="M1238 546 c-36 -6 -70 -14 -73 -18 -4 -4 15 -20 41 -37 38 -23 52
-27 60 -18 20 22 56 87 47 86 -4 -1 -38 -7 -75 -13z"/>
<path d="M1330 550 c0 -5 4 -10 9 -10 6 0 13 5 16 10 3 6 -1 10 -9 10 -9 0
-16 -4 -16 -10z"/>
<path d="M2473 509 c-79 -132 -212 -215 -403 -249 -64 -12 -170 -54 -170 -69
0 -9 108 -35 235 -57 103 -18 466 -30 581 -19 l77 7 -7 61 c-3 34 -9 122 -13
195 l-6 133 -26 -24 c-74 -69 -153 -62 -218 19 l-29 37 -21 -34z"/>
<path d="M1853 471 c-60 -55 -173 -192 -173 -210 0 -9 80 -38 162 -59 l36 -10
31 69 c17 38 31 81 31 95 0 24 -2 25 -47 22 -43 -3 -48 -1 -45 17 2 11 19 44
38 73 20 30 34 55 32 57 -2 1 -31 -23 -65 -54z"/>
<path d="M1461 464 c-105 -54 -110 -58 -91 -71 41 -29 193 -94 207 -89 8 3 12
2 9 -3 -7 -11 55 -34 64 -24 4 5 21 27 39 50 l32 42 -65 -23 c-37 -14 -65 -21
-63 -18 2 4 12 24 22 44 21 41 14 59 -15 40 -25 -15 -25 -14 0 39 11 24 20 50
20 57 0 25 -51 11 -159 -44z"/>
</g>
</svg>
